<?xml version="1.0" encoding="UTF-8" standalone="no"?>
<!DOCTYPE svg PUBLIC "-//W3C//DTD SVG 1.1//EN" "http://www.w3.org/Graphics/SVG/1.1/DTD/svg11.dtd">
<svg version="1.1" xmlns="http://www.w3.org/2000/svg" xmlns:xlink="http://www.w3.org/1999/xlink" preserveAspectRatio="xMidYMid meet" viewBox="0 0 640 640" width="640" height="640"><defs><path d="M38 3C38 22.8 38 33.8 38 36C38 37.34 37.34 38 36 38C16.2 38 5.2 38 3 38C1.66 38 1 37.34 1 36C1 16.2 1 5.2 1 3C1 1.66 1.66 1 3 1C22.8 1 33.8 1 36 1C37.34 1 38 1.66 38 3Z" id="b16au3mK4"></path><path d="M38 3C38 22.8 38 33.8 38 36C38 37.34 37.34 38 36 38C16.2 38 5.2 38 3 38C1.66 38 1 37.34 1 36C1 16.2 1 5.2 1 3C1 1.66 1.66 1 3 1C22.8 1 33.8 1 36 1C37.34 1 38 1.66 38 3Z" id="gjw9Egeqp"></path><path d="M29.25 13.12C28.4 13.97 24.1 18.18 16.38 25.76C13.54 22.99 11.98 21.44 11.66 21.14C11.57 21.06 11.46 20.98 11.35 20.93C11.23 20.89 11.1 20.86 10.98 20.86C10.85 20.86 10.72 20.89 10.61 20.93C10.49 20.98 10.38 21.06 10.3 21.14C10.12 21.32 10.01 21.56 10.01 21.81C10.01 22.05 10.12 22.3 10.3 22.47C10.84 23 15.15 27.23 15.7 27.76C15.78 27.85 15.89 27.92 16.01 27.97C16.12 28.02 16.25 28.04 16.38 28.04C16.63 28.04 16.87 27.94 17.04 27.76C18.4 26.44 29.24 15.8 30.6 14.47C30.69 14.38 30.76 14.27 30.81 14.16C30.87 14.04 30.88 13.92 30.88 13.8C30.88 13.67 30.87 13.55 30.81 13.44C30.76 13.32 30.69 13.22 30.6 13.12C30.42 12.95 30.18 12.86 29.93 12.86C29.68 12.86 29.43 12.95 29.25 13.12Z" id="e1f3Ism9Y6"></path><path d="M29.25 13.12C28.4 13.97 24.1 18.18 16.38 25.76C13.54 22.99 11.98 21.44 11.66 21.14C11.57 21.06 11.46 20.98 11.35 20.93C11.23 20.89 11.1 20.86 10.98 20.86C10.85 20.86 10.72 20.89 10.61 20.93C10.49 20.98 10.38 21.06 10.3 21.14C10.12 21.32 10.01 21.56 10.01 21.81C10.01 22.05 10.12 22.3 10.3 22.47C10.84 23 15.15 27.23 15.7 27.76C15.78 27.85 15.89 27.92 16.01 27.97C16.12 28.02 16.25 28.04 16.38 28.04C16.63 28.04 16.87 27.94 17.04 27.76C18.4 26.44 29.24 15.8 30.6 14.47C30.69 14.38 30.76 14.27 30.81 14.16C30.87 14.04 30.88 13.92 30.88 13.8C30.88 13.67 30.87 13.55 30.81 13.44C30.76 13.32 30.69 13.22 30.6 13.12C30.42 12.95 30.18 12.86 29.93 12.86C29.68 12.86 29.43 12.95 29.25 13.12Z" id="a3VZAA9Hcl"></path></defs><g><g><g><use xlink:href="#b16au3mK4" opacity="1" fill="#ffffff" fill-opacity="1"></use><g><use xlink:href="#b16au3mK4" opacity="1" fill-opacity="0" stroke="#000000" stroke-width="1" stroke-opacity="0"></use></g></g><g><use xlink:href="#gjw9Egeqp" opacity="1" fill="#000000" fill-opacity="0"></use><g><use xlink:href="#gjw9Egeqp" opacity="1" fill-opacity="0" stroke="#e5e5e5" stroke-width="2" stroke-opacity="1"></use></g></g><g><use xlink:href="#e1f3Ism9Y6" opacity="1" fill="#d22856" fill-opacity="1"></use><g><use xlink:href="#e1f3Ism9Y6" opacity="1" fill-opacity="0" stroke="#000000" stroke-width="1" stroke-opacity="0"></use></g></g><g><use xlink:href="#a3VZAA9Hcl" opacity="1" fill="#000000" fill-opacity="0"></use><g><use xlink:href="#a3VZAA9Hcl" opacity="1" fill-opacity="0" stroke="#000000" stroke-width="1" stroke-opacity="0"></use></g></g></g></g></svg>
