<?xml version="1.0" encoding="UTF-8" standalone="no"?>
<!DOCTYPE svg PUBLIC "-//W3C//DTD SVG 1.1//EN" "http://www.w3.org/Graphics/SVG/1.1/DTD/svg11.dtd">
<svg version="1.1" xmlns="http://www.w3.org/2000/svg" xmlns:xlink="http://www.w3.org/1999/xlink" preserveAspectRatio="xMidYMid meet" viewBox="0 0 640 640" width="640" height="640"><defs><path d="M38 3C38 22.8 38 33.8 38 36C38 37.34 37.34 38 36 38C16.2 38 5.2 38 3 38C1.66 38 1 37.34 1 36C1 16.2 1 5.2 1 3C1 1.66 1.66 1 3 1C22.8 1 33.8 1 36 1C37.34 1 38 1.66 38 3Z" id="baZjBJUE1"></path><path d="M38 3C38 22.8 38 33.8 38 36C38 37.34 37.34 38 36 38C16.2 38 5.2 38 3 38C1.66 38 1 37.34 1 36C1 16.2 1 5.2 1 3C1 1.66 1.66 1 3 1C22.8 1 33.8 1 36 1C37.34 1 38 1.66 38 3Z" id="a78t1iYXN"></path><path d="M29.25 13.12C28.4 13.97 24.1 18.18 16.37 25.76C13.54 22.99 11.98 21.44 11.65 21.14C11.57 21.06 11.46 20.98 11.34 20.93C11.23 20.89 11.1 20.86 10.97 20.86C10.85 20.86 10.72 20.89 10.6 20.93C10.49 20.98 10.38 21.06 10.29 21.14C10.12 21.32 10.01 21.56 10.01 21.81C10.01 22.05 10.12 22.3 10.29 22.47C10.83 23 15.15 27.23 15.69 27.76C15.78 27.85 15.89 27.92 16 27.97C16.12 28.02 16.25 28.04 16.37 28.04C16.63 28.04 16.86 27.94 17.04 27.76C18.4 26.44 29.24 15.8 30.6 14.47C30.69 14.38 30.76 14.27 30.81 14.16C30.86 14.04 30.88 13.92 30.88 13.8C30.88 13.67 30.86 13.55 30.81 13.44C30.76 13.32 30.69 13.22 30.6 13.12C30.42 12.95 30.18 12.86 29.93 12.86C29.67 12.86 29.43 12.95 29.25 13.12Z" id="f1CGCDwuCS"></path><path d="M29.25 13.12C28.4 13.97 24.1 18.18 16.37 25.76C13.54 22.99 11.98 21.44 11.65 21.14C11.57 21.06 11.46 20.98 11.34 20.93C11.23 20.89 11.1 20.86 10.97 20.86C10.85 20.86 10.72 20.89 10.6 20.93C10.49 20.98 10.38 21.06 10.29 21.14C10.12 21.32 10.01 21.56 10.01 21.81C10.01 22.05 10.12 22.3 10.29 22.47C10.83 23 15.15 27.23 15.69 27.76C15.78 27.85 15.89 27.92 16 27.97C16.12 28.02 16.25 28.04 16.37 28.04C16.63 28.04 16.86 27.94 17.04 27.76C18.4 26.44 29.24 15.8 30.6 14.47C30.69 14.38 30.76 14.27 30.81 14.16C30.86 14.04 30.88 13.92 30.88 13.8C30.88 13.67 30.86 13.55 30.81 13.44C30.76 13.32 30.69 13.22 30.6 13.12C30.42 12.95 30.18 12.86 29.93 12.86C29.67 12.86 29.43 12.95 29.25 13.12Z" id="c5TgebGwAm"></path></defs><g><g><g><use xlink:href="#baZjBJUE1" opacity="1" fill="#ffffff" fill-opacity="1"></use><g><use xlink:href="#baZjBJUE1" opacity="1" fill-opacity="0" stroke="#000000" stroke-width="1" stroke-opacity="0"></use></g></g><g><use xlink:href="#a78t1iYXN" opacity="1" fill="#000000" fill-opacity="0"></use><g><use xlink:href="#a78t1iYXN" opacity="1" fill-opacity="0" stroke="#d22856" stroke-width="2" stroke-opacity="1"></use></g></g><g><use xlink:href="#f1CGCDwuCS" opacity="1" fill="#d22856" fill-opacity="1"></use><g><use xlink:href="#f1CGCDwuCS" opacity="1" fill-opacity="0" stroke="#000000" stroke-width="1" stroke-opacity="0"></use></g></g><g><use xlink:href="#c5TgebGwAm" opacity="1" fill="#000000" fill-opacity="0"></use><g><use xlink:href="#c5TgebGwAm" opacity="1" fill-opacity="0" stroke="#000000" stroke-width="1" stroke-opacity="0"></use></g></g></g></g></svg>
