<svg width="26" height="26" viewBox="0 0 26 26" fill="none" xmlns="http://www.w3.org/2000/svg">
<path d="M5.67386 19.0895L5.67384 19.0895C3.96263 17.2607 2.46513 15.1745 1.45699 13.2146C0.543106 11.4383 0.669329 9.21815 1.78056 7.55779C1.9842 7.25135 2.21952 6.96572 2.4773 6.70793L3.8593 5.32593L3.8594 5.32584C4.47613 4.71022 5.54281 4.71162 6.16015 5.32565L6.16042 5.32591L8.92425 8.08874C9.23155 8.39495 9.40137 8.8042 9.40137 9.239C9.40137 9.6729 9.23149 10.082 8.92444 10.3891L8.92441 10.3891L7.14144 12.1711C7.02616 12.2863 7.01091 12.4682 7.09482 12.5898L6.97137 12.675M5.67386 19.0895L15.6052 17.068L13.8223 18.8499L13.8223 18.8499C13.7119 18.9603 13.521 18.9773 13.4036 18.8966C10.9305 17.1848 8.80739 15.0627 7.09469 12.5896L6.97137 12.675M5.67386 19.0895C7.11812 20.6323 8.74743 21.9981 10.5156 23.1478L10.7623 23.3086L10.7625 23.3087L10.7785 23.3192C12.0715 24.164 13.5806 25.15 15.3364 25.15L15.3674 25.15L15.3684 25.15M5.67386 19.0895L15.3684 25.15M6.97137 12.675C8.69437 15.163 10.8304 17.298 13.3184 19.02L7.03537 12.065C6.87137 12.229 6.84437 12.491 6.97137 12.675ZM15.3684 25.15C16.8267 25.1397 18.2544 24.544 19.2864 23.5121L15.3684 25.15ZM20.6695 22.131L20.6694 22.1311L19.2864 23.5121L20.6695 22.131ZM20.6695 22.131C21.303 21.4964 21.303 20.4646 20.6695 19.83L20.6694 19.8299M20.6695 22.131L20.6694 19.8299M20.6694 19.8299L17.9064 17.0679M20.6694 19.8299L17.9064 17.0679M4.77844 6.24607L4.7784 6.2461L3.39644 7.62707C3.19849 7.82502 3.01866 8.04443 2.86098 8.27951C2.00939 9.55312 1.91269 11.2578 2.61375 12.6204L2.61377 12.6204C3.56659 14.4734 4.99005 16.4562 6.62388 18.2015L6.62391 18.2015C7.99561 19.6677 9.54427 20.9648 11.2251 22.0572L11.2255 22.0575L11.4744 22.2204L4.77844 6.24607ZM4.77844 6.24607C4.84039 6.18411 4.92227 6.15 5.01037 6.15C5.09862 6.15 5.18012 6.18419 5.24071 6.24547L5.24132 6.24609M4.77844 6.24607L5.24132 6.24609M5.24132 6.24609L8.0053 9.00907C8.06749 9.07126 8.10137 9.15223 8.10137 9.24C8.10137 9.32777 8.06749 9.40874 8.0053 9.47093L6.22233 11.2529L6.2223 11.2529M5.24132 6.24609L6.2223 11.2529M6.2223 11.2529C5.66294 11.8123 5.57907 12.6857 6.02501 13.3303L6.02506 13.3304L6.2223 11.2529ZM16.5244 17.9871L16.5244 17.9871L14.7414 19.7691C14.7414 19.7691 14.7414 19.7691 14.7414 19.7691C14.4353 20.0751 14.0122 20.251 13.5784 20.251C13.2492 20.251 12.9324 20.1529 12.663 19.9663C12.663 19.9663 12.663 19.9663 12.663 19.9663L12.7484 19.843L16.5244 17.9871ZM16.5244 17.9871C16.6469 17.8646 16.8649 17.8646 16.9873 17.9871L16.9873 17.9871M16.5244 17.9871L16.9873 17.9871M16.9873 17.9871L19.7503 20.7491C19.7503 20.7491 19.7503 20.7491 19.7503 20.7491C19.8777 20.8765 19.8777 21.0845 19.7503 21.2119C19.7503 21.2119 19.7503 21.2119 19.7503 21.2119L18.3683 22.5929L18.3683 22.5929C17.5774 23.3839 16.4803 23.8421 15.3609 23.85M16.9873 17.9871L15.3609 23.85M15.3609 23.85H15.3374C13.9774 23.85 12.7293 23.0399 11.4745 22.2205L15.3609 23.85ZM17.9064 17.0679C17.9064 17.0679 17.9064 17.0679 17.9064 17.0679M17.9064 17.0679L17.9064 17.0679M17.9064 17.0679C17.29 16.4515 16.2221 16.4502 15.6053 17.0679L17.9064 17.0679ZM14.9954 0.85C14.6365 0.85 14.3454 1.14116 14.3454 1.5C14.3454 1.85884 14.6365 2.15 14.9954 2.15C19.8745 2.15 23.8454 6.12084 23.8454 11C23.8454 11.3588 24.1365 11.65 24.4954 11.65C24.8542 11.65 25.1454 11.3588 25.1454 11C25.1454 5.40316 20.5922 0.85 14.9954 0.85ZM20.8454 11C20.8454 11.3588 21.1365 11.65 21.4954 11.65C21.8542 11.65 22.1454 11.3588 22.1454 11C22.1454 7.05716 18.9382 3.85 14.9954 3.85C14.6365 3.85 14.3454 4.14116 14.3454 4.5C14.3454 4.85884 14.6365 5.15 14.9954 5.15C18.2215 5.15 20.8454 7.77384 20.8454 11ZM14.3454 7.5C14.3454 7.85884 14.6365 8.15 14.9954 8.15C16.5665 8.15 17.8454 9.42884 17.8454 11C17.8454 11.3588 18.1365 11.65 18.4954 11.65C18.8542 11.65 19.1454 11.3588 19.1454 11C19.1454 8.71116 17.2842 6.85 14.9954 6.85C14.6365 6.85 14.3454 7.14116 14.3454 7.5Z" fill="white" stroke="white" stroke-width="0.3"/>
</svg>
